<svg id="visual" viewBox="0 0 900 600" width="900" height="600" xmlns="http://www.w3.org/2000/svg" xmlns:xlink="http://www.w3.org/1999/xlink" version="1.1"><rect x="0" y="0" width="900" height="600" fill="#00121f"></rect><defs><linearGradient id="grad1_0" x1="33.3%" y1="0%" x2="100%" y2="100%"><stop offset="20%" stop-color="#1d364f" stop-opacity="1"></stop><stop offset="80%" stop-color="#1d364f" stop-opacity="1"></stop></linearGradient></defs><defs><linearGradient id="grad1_1" x1="33.3%" y1="0%" x2="100%" y2="100%"><stop offset="20%" stop-color="#1d364f" stop-opacity="1"></stop><stop offset="80%" stop-color="#193148" stop-opacity="1"></stop></linearGradient></defs><defs><linearGradient id="grad1_2" x1="33.3%" y1="0%" x2="100%" y2="100%"><stop offset="20%" stop-color="#142b41" stop-opacity="1"></stop><stop offset="80%" stop-color="#193148" stop-opacity="1"></stop></linearGradient></defs><defs><linearGradient id="grad1_3" x1="33.3%" y1="0%" x2="100%" y2="100%"><stop offset="20%" stop-color="#142b41" stop-opacity="1"></stop><stop offset="80%" stop-color="#10263a" stop-opacity="1"></stop></linearGradient></defs><defs><linearGradient id="grad1_4" x1="33.3%" y1="0%" x2="100%" y2="100%"><stop offset="20%" stop-color="#0c2133" stop-opacity="1"></stop><stop offset="80%" stop-color="#10263a" stop-opacity="1"></stop></linearGradient></defs><defs><linearGradient id="grad1_5" x1="33.3%" y1="0%" x2="100%" y2="100%"><stop offset="20%" stop-color="#0c2133" stop-opacity="1"></stop><stop offset="80%" stop-color="#091c2c" stop-opacity="1"></stop></linearGradient></defs><defs><linearGradient id="grad1_6" x1="33.3%" y1="0%" x2="100%" y2="100%"><stop offset="20%" stop-color="#051725" stop-opacity="1"></stop><stop offset="80%" stop-color="#091c2c" stop-opacity="1"></stop></linearGradient></defs><defs><linearGradient id="grad1_7" x1="33.3%" y1="0%" x2="100%" y2="100%"><stop offset="20%" stop-color="#051725" stop-opacity="1"></stop><stop offset="80%" stop-color="#00121f" stop-opacity="1"></stop></linearGradient></defs><defs><linearGradient id="grad2_0" x1="0%" y1="0%" x2="66.7%" y2="100%"><stop offset="20%" stop-color="#1d364f" stop-opacity="1"></stop><stop offset="80%" stop-color="#1d364f" stop-opacity="1"></stop></linearGradient></defs><defs><linearGradient id="grad2_1" x1="0%" y1="0%" x2="66.7%" y2="100%"><stop offset="20%" stop-color="#193148" stop-opacity="1"></stop><stop offset="80%" stop-color="#1d364f" stop-opacity="1"></stop></linearGradient></defs><defs><linearGradient id="grad2_2" x1="0%" y1="0%" x2="66.7%" y2="100%"><stop offset="20%" stop-color="#193148" stop-opacity="1"></stop><stop offset="80%" stop-color="#142b41" stop-opacity="1"></stop></linearGradient></defs><defs><linearGradient id="grad2_3" x1="0%" y1="0%" x2="66.7%" y2="100%"><stop offset="20%" stop-color="#10263a" stop-opacity="1"></stop><stop offset="80%" stop-color="#142b41" stop-opacity="1"></stop></linearGradient></defs><defs><linearGradient id="grad2_4" x1="0%" y1="0%" x2="66.7%" y2="100%"><stop offset="20%" stop-color="#10263a" stop-opacity="1"></stop><stop offset="80%" stop-color="#0c2133" stop-opacity="1"></stop></linearGradient></defs><defs><linearGradient id="grad2_5" x1="0%" y1="0%" x2="66.7%" y2="100%"><stop offset="20%" stop-color="#091c2c" stop-opacity="1"></stop><stop offset="80%" stop-color="#0c2133" stop-opacity="1"></stop></linearGradient></defs><defs><linearGradient id="grad2_6" x1="0%" y1="0%" x2="66.7%" y2="100%"><stop offset="20%" stop-color="#091c2c" stop-opacity="1"></stop><stop offset="80%" stop-color="#051725" stop-opacity="1"></stop></linearGradient></defs><defs><linearGradient id="grad2_7" x1="0%" y1="0%" x2="66.7%" y2="100%"><stop offset="20%" stop-color="#00121f" stop-opacity="1"></stop><stop offset="80%" stop-color="#051725" stop-opacity="1"></stop></linearGradient></defs><g transform="translate(900, 0)"><path d="M0 486.7C-86.5 474.8 -172.9 462.8 -243.4 421.5C-313.8 380.3 -368.3 309.6 -406.2 234.5C-444.1 159.4 -465.4 79.7 -486.7 0L0 0Z" fill="#031522"></path><path d="M0 425.9C-75.7 415.4 -151.3 405 -213 368.8C-274.6 332.7 -322.2 270.9 -355.4 205.2C-388.6 139.4 -407.2 69.7 -425.9 0L0 0Z" fill="#071a29"></path><path d="M0 365.1C-64.8 356.1 -129.7 347.1 -182.5 316.2C-235.4 285.2 -276.2 232.2 -304.6 175.9C-333 119.5 -349.1 59.8 -365.1 0L0 0Z" fill="#0a1f2f"></path><path d="M0 304.2C-54 296.7 -108.1 289.3 -152.1 263.5C-196.1 237.7 -230.2 193.5 -253.9 146.6C-277.5 99.6 -290.9 49.8 -304.2 0L0 0Z" fill="#0e2436"></path><path d="M0 243.4C-43.2 237.4 -86.5 231.4 -121.7 210.8C-156.9 190.1 -184.1 154.8 -203.1 117.3C-222 79.7 -232.7 39.8 -243.4 0L0 0Z" fill="#12293d"></path><path d="M0 182.5C-32.4 178 -64.8 173.6 -91.3 158.1C-117.7 142.6 -138.1 116.1 -152.3 87.9C-166.5 59.8 -174.5 29.9 -182.5 0L0 0Z" fill="#162e44"></path><path d="M0 121.7C-21.6 118.7 -43.2 115.7 -60.8 105.4C-78.5 95.1 -92.1 77.4 -101.5 58.6C-111 39.8 -116.4 19.9 -121.7 0L0 0Z" fill="#1b334b"></path><path d="M0 60.8C-10.8 59.3 -21.6 57.9 -30.4 52.7C-39.2 47.5 -46 38.7 -50.8 29.3C-55.5 19.9 -58.2 10 -60.8 0L0 0Z" fill="#1d364f"></path></g><g transform="translate(0, 600)"><path d="M0 -486.7C86.1 -474.6 172.2 -462.4 243.4 -421.5C314.5 -380.7 370.7 -311 408.8 -236C446.8 -161 466.8 -80.5 486.7 0L0 0Z" fill="#031522"></path><path d="M0 -425.9C75.4 -415.3 150.7 -404.6 213 -368.8C275.2 -333.1 324.4 -272.2 357.7 -206.5C391 -140.8 408.4 -70.4 425.9 0L0 0Z" fill="#071a29"></path><path d="M0 -365.1C64.6 -355.9 129.2 -346.8 182.5 -316.2C235.9 -285.5 278 -233.3 306.6 -177C335.1 -120.7 350.1 -60.4 365.1 0L0 0Z" fill="#0a1f2f"></path><path d="M0 -304.2C53.8 -296.6 107.6 -289 152.1 -263.5C196.6 -237.9 231.7 -194.4 255.5 -147.5C279.3 -100.6 291.7 -50.3 304.2 0L0 0Z" fill="#0e2436"></path><path d="M0 -243.4C43.1 -237.3 86.1 -231.2 121.7 -210.8C157.3 -190.3 185.3 -155.5 204.4 -118C223.4 -80.5 233.4 -40.2 243.4 0L0 0Z" fill="#12293d"></path><path d="M0 -182.5C32.3 -178 64.6 -173.4 91.3 -158.1C117.9 -142.7 139 -116.6 153.3 -88.5C167.6 -60.4 175 -30.2 182.5 0L0 0Z" fill="#162e44"></path><path d="M0 -121.7C21.5 -118.6 43.1 -115.6 60.8 -105.4C78.6 -95.2 92.7 -77.8 102.2 -59C111.7 -40.2 116.7 -20.1 121.7 0L0 0Z" fill="#1b334b"></path><path d="M0 -60.8C10.8 -59.3 21.5 -57.8 30.4 -52.7C39.3 -47.6 46.3 -38.9 51.1 -29.5C55.9 -20.1 58.3 -10.1 60.8 0L0 0Z" fill="#1d364f"></path></g></svg>