<svg viewBox="10.393939393939393 15.443999999999999 117.89696969696969 116.424" xmlns:xlink="http://www.w3.org/1999/xlink" version="1.1" xmlns="http://www.w3.org/2000/svg" id="Layer_1" style="max-height: 500px" width="117.89696969696969" height="116.424">
  
  <defs>
    <style>
      .st0 {
        fill: url(#linear-gradient1);
      }

      .st1 {
        fill: none;
      }

      .st2 {
        fill: url(#linear-gradient);
      }
    </style>
    <linearGradient gradientUnits="userSpaceOnUse" y2="73.89" x2="126.03" y1="73.89" x1="33.42" id="linear-gradient">
      <stop stop-color="#006f7f" offset="0"/>
      <stop stop-color="#000" offset="1"/>
    </linearGradient>
    <linearGradient xlink:href="#linear-gradient" y2="53.45" x2="83.98" y1="53.45" x1="11.87" id="linear-gradient1"/>
  </defs>
  <path d="" class="st1"/>
  <path d="M147,0v148.5H0V0h147ZM83.05,18.94c-3.46-3.69-18.64-.12-23.44,1.3-21.62,6.37-40.3,25.36-45.74,47.26-1.4,5.62-5.78,26.19,5.62,21.36,3.02-1.28,2.6-11.05,3.24-14.76,4.09-23.71,23.49-41.89,46.84-46.16,2.94-.54,9.98-.28,12.19-1.31s3-5.87,1.29-7.69ZM93,63.75c-7.42-2.6-12.29-4.64-20.27-2.65-27.84,6.95-21.98,50.65,9.39,47.64,31.2-3,18.84-48.75,21.55-69.2,1.45-4,4.94-8.98,9.08-10.44.78-.27.74-1.05,1.64.12.46,10.85.59,21.81.38,32.68-.42,21.88,1.65,47.14-23.63,55.87-47.98,16.57-67.68-57.55-19.94-67.94,4.62-1.01,13.05.43,12.85-5.94-.24-7.42-11.52-4.82-16.41-3.63-36.76,8.97-46.22,57.05-17.01,80.46,24.18,19.38,60.82,8.7,71.43-20.04,4.99-13.53,4.24-56.78,3.21-72.6-.67-10.21-1.45-12.45-12.19-9.88-8.82,2.12-20.09,12.42-20.09,21.91v23.63h.01Z" class="st1"/>
  <path d="M93,63.75v-23.63c0-9.49,11.27-19.79,20.09-21.91,10.74-2.58,11.52-.34,12.19,9.88,1.03,15.82,1.78,59.07-3.21,72.6-10.6,28.74-47.25,39.42-71.43,20.04-29.21-23.41-19.75-71.49,17.01-80.46,4.89-1.19,16.16-3.8,16.41,3.63.21,6.36-8.22,4.93-12.85,5.94-47.74,10.39-28.03,84.51,19.94,67.94,25.28-8.73,23.21-33.99,23.63-55.87.21-10.87.08-21.82-.38-32.68-.9-1.17-.87-.39-1.64-.12-4.14,1.46-7.63,6.43-9.08,10.44-2.71,20.45,9.65,66.2-21.55,69.2-31.37,3.01-37.23-40.69-9.39-47.64,7.99-1.99,12.86.05,20.27,2.65h-.01ZM92.89,84.54c0-7.66-6.21-13.87-13.87-13.87s-13.87,6.21-13.87,13.87,6.21,13.87,13.87,13.87,13.87-6.21,13.87-13.87Z" class="st2"/>
  <path d="M83.05,18.94c1.71,1.82.94,6.65-1.29,7.69s-9.25.77-12.19,1.31c-23.36,4.27-42.75,22.44-46.84,46.16-.64,3.71-.21,13.48-3.24,14.76-11.4,4.83-7.01-15.74-5.62-21.36,5.44-21.9,24.13-40.88,45.74-47.26,4.8-1.42,19.97-4.99,23.44-1.3Z" class="st0"/>
  <circle r="13.87" cy="84.54" cx="79.02" class="st1"/>
  <path d="" class="st1"/>
</svg>