<svg style="max-height: 500px" viewBox="10.096969696969698 52.866 127.6969696969697 35.64" version="1.1" id="Layer_1" xmlns="http://www.w3.org/2000/svg" width="127.6969696969697" height="35.64">
  
  <defs>
    <style>
      .st0 {
        fill:none;
      }
    </style>
  </defs>
  <g>
    <path d="M44.55,53.75v33.6H11.29v-33.6h33.26ZM30.08,58.03c-.78-.84-4.22-.03-5.3.29-4.89,1.44-9.12,5.74-10.35,10.69-.32,1.27-1.31,5.93,1.27,4.83.68-.29.59-2.5.73-3.34.93-5.37,5.31-9.48,10.6-10.44.67-.12,2.26-.06,2.76-.3s.68-1.33.29-1.74ZM32.34,68.17c-1.68-.59-2.78-1.05-4.59-.6-6.3,1.57-4.97,11.46,2.13,10.78,7.06-.68,4.26-11.03,4.88-15.66.33-.91,1.12-2.03,2.06-2.36.18-.06.17-.24.37.03.11,2.46.13,4.94.09,7.39-.09,4.95.37,10.67-5.35,12.64-10.86,3.75-15.31-13.02-4.51-15.37,1.05-.23,2.95.1,2.91-1.34-.05-1.68-2.61-1.09-3.71-.82-8.32,2.03-10.46,12.91-3.85,18.21,5.47,4.39,13.76,1.97,16.16-4.53,1.13-3.06.96-12.85.73-16.43-.15-2.31-.33-2.82-2.76-2.23-2,.48-4.55,2.81-4.55,4.96v5.35Z" class="st0"/>
    <path d="M32.34,68.17v-5.35c0-2.15,2.55-4.48,4.55-4.96,2.43-.58,2.61-.08,2.76,2.23.23,3.58.4,13.37-.73,16.43-2.4,6.5-10.69,8.92-16.16,4.53-6.61-5.3-4.47-16.18,3.85-18.21,1.11-.27,3.66-.86,3.71.82.05,1.44-1.86,1.12-2.91,1.34-10.8,2.35-6.34,19.12,4.51,15.37,5.72-1.97,5.25-7.69,5.35-12.64.05-2.46.02-4.94-.09-7.39-.2-.26-.2-.09-.37-.03-.94.33-1.73,1.46-2.06,2.36-.61,4.63,2.18,14.98-4.88,15.66-7.1.68-8.42-9.21-2.13-10.78,1.81-.45,2.91.01,4.59.6ZM32.31,72.87c0-1.73-1.41-3.14-3.14-3.14s-3.14,1.41-3.14,3.14,1.41,3.14,3.14,3.14,3.14-1.41,3.14-3.14Z"/>
    <path d="M30.08,58.03c.39.41.21,1.51-.29,1.74s-2.09.17-2.76.3c-5.28.97-9.67,5.08-10.6,10.44-.14.84-.05,3.05-.73,3.34-2.58,1.09-1.59-3.56-1.27-4.83,1.23-4.96,5.46-9.25,10.35-10.69,1.09-.32,4.52-1.13,5.3-.29Z"/>
    <circle r="3.14" cy="72.87" cx="29.17" class="st0"/>
  </g>
  <g>
    <path d="M47.3,64.34c1.89,0,2.95,1.03,2.95,2.04v.17l.18.02v-6.9h2.84l-.02,9.72c0,3.03-2.04,5.05-5.11,5.05s-5.11-1.89-5.11-5.25c0-2.96,1.71-4.86,4.28-4.86ZM48.14,71.8c1.4,0,2.29-.95,2.29-2.41s-.78-2.41-2.31-2.41c-1.38,0-2.27.95-2.27,2.41s.93,2.41,2.29,2.41Z"/>
    <path d="M56.14,60.45c.95,0,1.59.58,1.59,1.46s-.64,1.46-1.59,1.46-1.61-.58-1.61-1.46.64-1.46,1.61-1.46ZM54.72,64.53h2.84v9.72h-2.84v-9.72Z"/>
    <path d="M63.82,64.34c2.9,0,4.82,1.79,4.82,4.35,0,2.41-1.57,3.4-2.43,3.4v.18c1.05,0,2.53.78,2.53,2.82,0,2.6-1.89,4.22-4.82,4.22s-4.82-1.77-4.82-4.57h2.82c0,1.21.76,1.92,2,1.92s2-.68,2-1.81c0-1.19-.97-1.57-2.1-1.57-2.9,0-4.82-1.79-4.82-4.47s1.92-4.47,4.82-4.47ZM63.82,70.63c1.52,0,2.02-.62,2.02-1.83,0-1.11-.8-1.83-2.02-1.83s-2,.72-2,1.83.8,1.83,2,1.83ZM68.16,61.79c.99,0,1.65.6,1.65,1.5s-.66,1.48-1.65,1.48-1.65-.6-1.65-1.48.66-1.5,1.65-1.5Z"/>
    <path d="M72.66,60.45c.95,0,1.59.58,1.59,1.46s-.64,1.46-1.59,1.46-1.61-.58-1.61-1.46.64-1.46,1.61-1.46ZM71.25,64.53h2.84v9.72h-2.84v-9.72Z"/>
    <path d="M81.16,60.45c2.12,0,3.36.21,4.82.76v2.82c-.95-.33-2.16-.89-4.76-.89-2.08,0-2.92.58-2.92,1.44,0,2.8,8.24,0,8.24,5.6,0,2.94-2.33,4.3-5.66,4.3-2.12,0-3.36-.21-4.82-.76v-2.82c.95.33,2.14.91,4.74.91,2.1,0,2.93-.6,2.93-1.46,0-2.78-8.26-.02-8.26-5.62,0-2.92,2.33-4.28,5.68-4.28Z"/>
    <path d="M90.58,69.9c.08,1.13.95,2,2.41,2,1.01,0,1.67-.45,1.91-1.11h2.92c-.43,2.43-2.24,3.65-4.94,3.65-3.07,0-5.11-2.02-5.11-5.05s2.04-5.05,5.11-5.05c2.78,0,4.94,1.73,4.92,4.92v.64h-7.21ZM94.84,68.17c-.1-.93-.82-1.61-1.91-1.61-1.15,0-1.94.8-2.24,1.61h4.14Z"/>
    <path d="M101.92,74.25h-2.84v-5.02c0-2.94,1.96-4.9,5-4.9s4.9,1.96,4.9,4.9v5.02h-2.82v-5.17c0-1.26-.86-2.1-2.14-2.1s-2.1.86-2.1,2.1v5.17Z"/>
    <path d="M115.37,71.8c1.09,0,1.69-.54,1.98-1.34h2.96c-.43,2.43-2.24,3.98-4.94,3.98-3.07,0-5.11-2.02-5.11-5.05s2.04-5.05,5.11-5.05c2.7,0,4.51,1.56,4.94,3.98h-2.96c-.29-.8-.89-1.34-1.98-1.34-1.38,0-2.29.97-2.29,2.41s.91,2.41,2.29,2.41Z"/>
    <path d="M124.36,69.9c.08,1.13.95,2,2.41,2,1.01,0,1.67-.45,1.91-1.11h2.92c-.43,2.43-2.24,3.65-4.94,3.65-3.07,0-5.11-2.02-5.11-5.05s2.04-5.05,5.11-5.05c2.78,0,4.94,1.73,4.92,4.92v.64h-7.21ZM128.62,68.17c-.1-.93-.82-1.61-1.91-1.61-1.15,0-1.94.8-2.24,1.61h4.14Z"/>
  </g>
  <g>
    <path d="M71.89,77.83c.22-.04.54-.07.97-.07s.77.1.97.26c.19.15.33.4.33.7s-.09.54-.28.71c-.25.23-.62.34-1.07.34-.13,0-.24,0-.33-.03v1.17h-.59v-3.1ZM72.48,79.29c.09.02.19.03.33.03.46,0,.75-.21.75-.58s-.28-.53-.7-.53c-.19,0-.32.02-.38.03v1.05Z"/>
    <path d="M76.91,79.77c0,.81-.62,1.22-1.28,1.22-.69,0-1.24-.45-1.24-1.17s.52-1.21,1.29-1.21,1.23.49,1.23,1.16ZM75.01,79.8c0,.45.27.76.64.76s.64-.27.64-.77c0-.37-.19-.76-.63-.76s-.65.37-.65.77Z"/>
    <path d="M77.72,78.66l.26,1.03c.06.24.11.49.16.74h0c.05-.25.13-.5.2-.74l.32-1.03h.49l.31,1c.08.27.14.52.2.77h0c.04-.25.1-.5.17-.77l.28-1h.58l-.75,2.27h-.57l-.29-.92c-.08-.24-.13-.45-.19-.73h0c-.05.28-.11.5-.19.73l-.31.92h-.57l-.71-2.27h.6Z"/>
    <path d="M81.45,79.96c.02.38.36.57.76.57.3,0,.5-.04.7-.11l.09.41c-.21.09-.5.16-.87.16-.79,0-1.26-.46-1.26-1.16,0-.58.39-1.22,1.2-1.22s1.06.66,1.06,1.12c0,.1,0,.19-.02.23h-1.67ZM82.57,79.55c0-.16-.08-.54-.53-.54-.4,0-.56.32-.59.54h1.12Z"/>
    <path d="M83.62,79.42c0-.33,0-.55-.02-.76h.52l.02.46h.02c.12-.35.41-.52.67-.52.06,0,.09,0,.14.01v.55c-.05-.01-.11-.02-.19-.02-.31,0-.5.18-.55.45,0,.05-.01.1-.01.16v1.17h-.6v-1.51Z"/>
    <path d="M85.77,79.96c.02.38.36.57.76.57.3,0,.5-.04.7-.11l.09.41c-.21.09-.5.16-.87.16-.79,0-1.26-.46-1.26-1.16,0-.58.39-1.22,1.2-1.22s1.06.66,1.06,1.12c0,.1,0,.19-.02.23h-1.67ZM86.9,79.55c0-.16-.08-.54-.53-.54-.4,0-.56.32-.59.54h1.12Z"/>
    <path d="M90.23,77.6v2.69c0,.25,0,.5.02.64h-.54l-.02-.39h0c-.15.28-.46.44-.82.44-.58,0-1.06-.46-1.06-1.16,0-.75.51-1.22,1.12-1.22.35,0,.6.14.71.31h0v-1.32h.6ZM89.63,79.63s0-.11-.01-.15c-.06-.23-.27-.42-.57-.42-.41,0-.65.31-.65.74s.24.71.65.71c.28,0,.51-.2.57-.45.01-.06.02-.11.02-.17v-.25Z"/>
    <path d="M91.94,77.83c.19-.04.56-.07.91-.07.47,0,.73.06.95.19.21.12.36.32.36.6s-.19.55-.54.67h0c.32.09.66.34.66.79,0,.29-.13.5-.32.66-.24.19-.62.29-1.24.29-.35,0-.61-.02-.77-.04v-3.08ZM92.53,79.06h.34c.45,0,.67-.18.67-.44,0-.31-.26-.42-.64-.42-.2,0-.31.01-.38.03v.83ZM92.53,80.5c.09.01.2.02.35.02.39,0,.75-.12.75-.52,0-.36-.34-.5-.77-.5h-.33v1Z"/>
    <path d="M95.15,78.66l.46,1.21c.05.14.11.32.14.45h.01c.04-.13.09-.31.14-.45l.4-1.2h.65l-.62,1.52c-.37.96-.6,1.3-.87,1.51-.24.19-.48.25-.65.27l-.12-.5c.09-.02.22-.06.34-.13.12-.06.26-.2.35-.38.02-.04.04-.07.04-.1,0-.02,0-.06-.04-.12l-.91-2.08h.67Z"/>
    <path d="M98.36,77.83c.29-.04.65-.07,1.03-.07.66,0,1.11.13,1.43.4.32.25.52.62.52,1.12,0,.53-.2.94-.51,1.22-.35.3-.91.46-1.59.46-.39,0-.67-.02-.88-.04v-3.08ZM98.96,80.48c.09.02.24.02.39.02.88,0,1.37-.45,1.37-1.19,0-.69-.46-1.08-1.28-1.08-.22,0-.38.02-.47.04v2.21Z"/>
    <path d="M102.5,78.02c0,.17-.13.32-.34.32s-.33-.15-.33-.32.13-.32.34-.32.33.14.34.32ZM101.86,80.93v-2.27h.6v2.27h-.6Z"/>
    <path d="M105.38,78.66c-.01.14-.02.32-.02.63v1.29c0,.45-.1.82-.36,1.05-.26.23-.63.29-.94.29s-.66-.07-.87-.2l.13-.46c.16.1.43.2.74.2.4,0,.72-.2.72-.71v-.2h0c-.15.21-.4.36-.74.36-.6,0-1.05-.45-1.05-1.11,0-.73.53-1.2,1.12-1.2.39,0,.62.18.74.38h0l.02-.32h.52ZM104.76,79.61c0-.05,0-.1-.02-.15-.07-.24-.26-.41-.54-.41-.34,0-.63.26-.63.74,0,.35.21.69.62.69.26,0,.46-.17.53-.38.02-.06.03-.14.03-.21v-.28Z"/>
    <path d="M106.64,78.02c0,.17-.13.32-.34.32s-.33-.15-.33-.32.13-.32.34-.32.33.14.34.32ZM106,80.93v-2.27h.6v2.27h-.6Z"/>
    <path d="M109.09,80.85c-.13.06-.4.13-.73.13-.77,0-1.26-.47-1.26-1.16s.49-1.21,1.36-1.21c.24,0,.47.05.63.12l-.11.44c-.11-.05-.26-.1-.5-.1-.48,0-.76.31-.76.73,0,.46.34.73.76.73.23,0,.39-.05.52-.1l.09.44Z"/>
    <path d="M111.88,79.77c0,.81-.62,1.22-1.28,1.22-.69,0-1.24-.45-1.24-1.17s.52-1.21,1.29-1.21,1.23.49,1.23,1.16ZM109.98,79.8c0,.45.27.76.64.76s.64-.27.64-.77c0-.37-.19-.76-.63-.76s-.65.37-.65.77Z"/>
    <path d="M112.38,79.35c0-.26,0-.49-.02-.69h.52l.03.36h.01c.1-.17.36-.42.78-.42.4,0,.88.24.88,1.02v1.3h-.6v-1.23c0-.36-.14-.61-.49-.61-.26,0-.44.18-.5.36-.02.05-.03.11-.03.17v1.31h-.6v-1.58Z"/>
    <path d="M115.25,79.35c0-.26,0-.49-.02-.69h.52l.03.36h.01c.1-.17.36-.42.78-.42.4,0,.88.24.88,1.02v1.3h-.6v-1.23c0-.36-.14-.61-.49-.61-.26,0-.44.18-.5.36-.02.05-.03.11-.03.17v1.31h-.6v-1.58Z"/>
    <path d="M119.77,77.79v1.75c0,.65.29.97.74.97.48,0,.76-.32.76-.97v-1.75h.6v1.73c0,1.02-.56,1.46-1.39,1.46-.77,0-1.31-.41-1.31-1.47v-1.72h.6Z"/>
    <path d="M122.53,79.35c0-.26,0-.49-.02-.69h.52l.03.36h.01c.1-.17.36-.42.78-.42.4,0,.88.24.88,1.02v1.3h-.6v-1.23c0-.36-.14-.61-.49-.61-.26,0-.44.18-.5.36-.02.05-.03.11-.03.17v1.31h-.6v-1.58Z"/>
    <path d="M126.04,78.02c0,.17-.13.32-.34.32s-.33-.15-.33-.32.13-.32.34-.32.33.14.34.32ZM125.41,80.93v-2.27h.6v2.27h-.6Z"/>
    <path d="M127.35,78v.66h.58v.45h-.58v.94c0,.28.06.44.31.44.11,0,.19-.01.25-.03v.45c-.08.04-.24.07-.44.07-.23,0-.41-.08-.52-.2-.13-.14-.18-.36-.18-.64v-1.03h-.34v-.45h.34v-.52l.58-.14Z"/>
    <path d="M128.79,79.96c.02.38.36.57.76.57.3,0,.5-.04.7-.11l.09.41c-.21.09-.5.16-.87.16-.79,0-1.26-.46-1.26-1.16,0-.58.39-1.22,1.2-1.22s1.06.66,1.06,1.12c0,.1,0,.19-.02.23h-1.67ZM129.91,79.55c0-.16-.08-.54-.53-.54-.4,0-.56.32-.59.54h1.12Z"/>
  </g>
</svg>