<svg id="visual" viewBox="0 0 900 900" width="900" height="900" xmlns="http://www.w3.org/2000/svg" xmlns:xlink="http://www.w3.org/1999/xlink" version="1.1"><rect x="0" y="0" width="900" height="900" fill="#001220"></rect><defs><linearGradient id="grad1_0" x1="0%" y1="0%" x2="100%" y2="100%"><stop offset="30%" stop-color="#07477b" stop-opacity="1"></stop><stop offset="70%" stop-color="#07477b" stop-opacity="1"></stop></linearGradient></defs><defs><linearGradient id="grad1_1" x1="0%" y1="0%" x2="100%" y2="100%"><stop offset="30%" stop-color="#07477b" stop-opacity="1"></stop><stop offset="70%" stop-color="#023f6d" stop-opacity="1"></stop></linearGradient></defs><defs><linearGradient id="grad1_2" x1="0%" y1="0%" x2="100%" y2="100%"><stop offset="30%" stop-color="#00385f" stop-opacity="1"></stop><stop offset="70%" stop-color="#023f6d" stop-opacity="1"></stop></linearGradient></defs><defs><linearGradient id="grad1_3" x1="0%" y1="0%" x2="100%" y2="100%"><stop offset="30%" stop-color="#00385f" stop-opacity="1"></stop><stop offset="70%" stop-color="#003052" stop-opacity="1"></stop></linearGradient></defs><defs><linearGradient id="grad1_4" x1="0%" y1="0%" x2="100%" y2="100%"><stop offset="30%" stop-color="#012845" stop-opacity="1"></stop><stop offset="70%" stop-color="#003052" stop-opacity="1"></stop></linearGradient></defs><defs><linearGradient id="grad1_5" x1="0%" y1="0%" x2="100%" y2="100%"><stop offset="30%" stop-color="#012845" stop-opacity="1"></stop><stop offset="70%" stop-color="#022138" stop-opacity="1"></stop></linearGradient></defs><defs><linearGradient id="grad1_6" x1="0%" y1="0%" x2="100%" y2="100%"><stop offset="30%" stop-color="#031a2c" stop-opacity="1"></stop><stop offset="70%" stop-color="#022138" stop-opacity="1"></stop></linearGradient></defs><defs><linearGradient id="grad1_7" x1="0%" y1="0%" x2="100%" y2="100%"><stop offset="30%" stop-color="#031a2c" stop-opacity="1"></stop><stop offset="70%" stop-color="#001220" stop-opacity="1"></stop></linearGradient></defs><defs><linearGradient id="grad2_0" x1="0%" y1="0%" x2="100%" y2="100%"><stop offset="30%" stop-color="#07477b" stop-opacity="1"></stop><stop offset="70%" stop-color="#07477b" stop-opacity="1"></stop></linearGradient></defs><defs><linearGradient id="grad2_1" x1="0%" y1="0%" x2="100%" y2="100%"><stop offset="30%" stop-color="#023f6d" stop-opacity="1"></stop><stop offset="70%" stop-color="#07477b" stop-opacity="1"></stop></linearGradient></defs><defs><linearGradient id="grad2_2" x1="0%" y1="0%" x2="100%" y2="100%"><stop offset="30%" stop-color="#023f6d" stop-opacity="1"></stop><stop offset="70%" stop-color="#00385f" stop-opacity="1"></stop></linearGradient></defs><defs><linearGradient id="grad2_3" x1="0%" y1="0%" x2="100%" y2="100%"><stop offset="30%" stop-color="#003052" stop-opacity="1"></stop><stop offset="70%" stop-color="#00385f" stop-opacity="1"></stop></linearGradient></defs><defs><linearGradient id="grad2_4" x1="0%" y1="0%" x2="100%" y2="100%"><stop offset="30%" stop-color="#003052" stop-opacity="1"></stop><stop offset="70%" stop-color="#012845" stop-opacity="1"></stop></linearGradient></defs><defs><linearGradient id="grad2_5" x1="0%" y1="0%" x2="100%" y2="100%"><stop offset="30%" stop-color="#022138" stop-opacity="1"></stop><stop offset="70%" stop-color="#012845" stop-opacity="1"></stop></linearGradient></defs><defs><linearGradient id="grad2_6" x1="0%" y1="0%" x2="100%" y2="100%"><stop offset="30%" stop-color="#022138" stop-opacity="1"></stop><stop offset="70%" stop-color="#031a2c" stop-opacity="1"></stop></linearGradient></defs><defs><linearGradient id="grad2_7" x1="0%" y1="0%" x2="100%" y2="100%"><stop offset="30%" stop-color="#001220" stop-opacity="1"></stop><stop offset="70%" stop-color="#031a2c" stop-opacity="1"></stop></linearGradient></defs><g transform="translate(900, 0)"><path d="M0 509.1C-91.1 497 -182.2 484.8 -254.6 440.9C-327 397 -380.7 321.3 -420 242.5C-459.3 163.7 -484.2 81.9 -509.1 0L0 0Z" fill="#021626"></path><path d="M0 445.5C-79.7 434.9 -159.4 424.2 -222.7 385.8C-286.1 347.4 -333.1 281.1 -367.5 212.2C-401.9 143.3 -423.7 71.6 -445.5 0L0 0Z" fill="#021d32"></path><path d="M0 381.8C-68.3 372.7 -136.6 363.6 -190.9 330.7C-245.2 297.7 -285.5 241 -315 181.9C-344.5 122.8 -363.2 61.4 -381.8 0L0 0Z" fill="#01253e"></path><path d="M0 318.2C-56.9 310.6 -113.8 303 -159.1 275.6C-204.4 248.1 -237.9 200.8 -262.5 151.6C-287.1 102.3 -302.6 51.2 -318.2 0L0 0Z" fill="#002c4b"></path><path d="M0 254.6C-45.5 248.5 -91.1 242.4 -127.3 220.5C-163.5 198.5 -190.4 160.6 -210 121.3C-229.7 81.9 -242.1 40.9 -254.6 0L0 0Z" fill="#003458"></path><path d="M0 190.9C-34.2 186.4 -68.3 181.8 -95.5 165.3C-122.6 148.9 -142.8 120.5 -157.5 90.9C-172.3 61.4 -181.6 30.7 -190.9 0L0 0Z" fill="#013b66"></path><path d="M0 127.3C-22.8 124.2 -45.5 121.2 -63.6 110.2C-81.7 99.2 -95.2 80.3 -105 60.6C-114.8 40.9 -121.1 20.5 -127.3 0L0 0Z" fill="#044374"></path><path d="M0 63.6C-11.4 62.1 -22.8 60.6 -31.8 55.1C-40.9 49.6 -47.6 40.2 -52.5 30.3C-57.4 20.5 -60.5 10.2 -63.6 0L0 0Z" fill="#07477b"></path></g><g transform="translate(0, 900)"><path d="M0 -509.1C85.3 -490.2 170.7 -471.3 249 -431.3C327.3 -391.2 398.7 -330 440.9 -254.6C483.1 -179.1 496.1 -89.6 509.1 0L0 0Z" fill="#021626"></path><path d="M0 -445.5C74.7 -429 149.3 -412.4 217.9 -377.4C286.4 -342.3 348.9 -288.7 385.8 -222.7C422.7 -156.8 434.1 -78.4 445.5 0L0 0Z" fill="#021d32"></path><path d="M0 -381.8C64 -367.7 128 -353.5 186.7 -323.5C245.5 -293.4 299 -247.5 330.7 -190.9C362.3 -134.4 372.1 -67.2 381.8 0L0 0Z" fill="#01253e"></path><path d="M0 -318.2C53.3 -306.4 106.7 -294.6 155.6 -269.6C204.6 -244.5 249.2 -206.2 275.6 -159.1C301.9 -112 310.1 -56 318.2 0L0 0Z" fill="#002c4b"></path><path d="M0 -254.6C42.7 -245.1 85.3 -235.7 124.5 -215.6C163.7 -195.6 199.4 -165 220.5 -127.3C241.5 -89.6 248.1 -44.8 254.6 0L0 0Z" fill="#003458"></path><path d="M0 -190.9C32 -183.8 64 -176.8 93.4 -161.7C122.8 -146.7 149.5 -123.7 165.3 -95.5C181.2 -67.2 186 -33.6 190.9 0L0 0Z" fill="#013b66"></path><path d="M0 -127.3C21.3 -122.6 42.7 -117.8 62.2 -107.8C81.8 -97.8 99.7 -82.5 110.2 -63.6C120.8 -44.8 124 -22.4 127.3 0L0 0Z" fill="#044374"></path><path d="M0 -63.6C10.7 -61.3 21.3 -58.9 31.1 -53.9C40.9 -48.9 49.8 -41.2 55.1 -31.8C60.4 -22.4 62 -11.2 63.6 0L0 0Z" fill="#07477b"></path></g></svg>